<?xml version="1.0" encoding="UTF-8" standalone="no"?>
<svg width="256px" height="256px" viewBox="0 0 256 256" version="1.1" xmlns="http://www.w3.org/2000/svg" xmlns:xlink="http://www.w3.org/1999/xlink" xmlns:sketch="http://www.bohemiancoding.com/sketch/ns">
    <!-- Generator: Sketch 3.3.3 (12072) - http://www.bohemiancoding.com/sketch -->
    <title>ol-logo-icon-olblue</title>
    <desc>Created with Sketch.</desc>
    <defs></defs>
    <g id="blog" stroke="none" stroke-width="1" fill="none" fill-rule="evenodd" sketch:type="MSPage">
        <g id="ol-logo-icon-olblue" sketch:type="MSArtboardGroup" fill="#4990E2">
            <g id="Imported-Layers-+-OPENLEDGER" sketch:type="MSLayerGroup" transform="translate(62.000000, 64.000000)">
                <path d="M122.228086,91.9712154 C123.769154,92.8088199 124.277524,94.8168373 123.422641,96.3245255 C122.905153,97.329651 121.712877,97.8344473 120.687018,97.8344473 C120.171809,97.8344473 119.663439,97.66916 119.14823,97.329651 C117.607162,96.4920464 117.098792,94.4840291 117.953675,92.9741072 C118.63986,91.6406408 120.687018,91.1336108 122.228086,91.9712154 L122.228086,91.9712154 Z M122.745575,82.0852478 C123.260784,80.4100387 125.141525,79.5724341 126.851289,80.0794641 C128.561054,80.5864941 129.415936,82.4269905 128.898447,84.1021996 L128.898447,84.1021996 C128.380958,85.4446006 127.188683,86.2822051 125.816312,86.2822051 C125.478918,86.2822051 125.132406,86.2822051 124.792733,86.1169178 C123.082968,85.4356661 122.228086,83.760457 122.745575,82.0852478 L122.745575,82.0852478 Z M128.898447,60.9798463 L128.561054,60.9798463 C126.851289,60.9798463 125.478918,59.8116671 125.310221,58.136458 C125.141525,56.4612488 126.3338,54.7860397 128.212262,54.6207524 C129.922026,54.4532315 131.631791,55.6236443 131.800487,57.4641407 C131.980583,59.3046371 130.608212,60.814559 128.898447,60.9798463 L128.898447,60.9798463 Z M128.212262,73.7092021 C126.502497,73.5439148 125.132406,72.033993 125.310221,70.1934965 C125.478918,68.5182874 127.019986,67.1758865 128.898447,67.3501082 C130.608212,67.5153955 131.980583,69.0253174 131.800487,70.8658138 C131.631791,72.541023 130.261699,73.7092021 128.551935,73.7092021 L128.212262,73.7092021 L128.212262,73.7092021 Z M79.65267,7.71489649 L78.9687642,7.71489649 C77.2589997,7.38208827 76.0644442,5.70687913 76.4041174,4.03167 C76.741511,2.35646086 78.4512755,1.18828168 80.16104,1.51885629 L80.16104,1.51885629 C81.8708045,1.8516645 83.0653599,3.52687364 82.7256867,5.20208278 C82.5661087,6.70083656 81.1937377,7.71489649 79.65267,7.71489649 L79.65267,7.71489649 Z M126.851289,48.4157777 C126.511616,48.581065 126.165104,48.581065 125.82543,48.581065 C124.455339,48.581065 123.260784,47.7434605 122.745575,46.4010595 C122.228086,44.7258504 123.082968,42.885354 124.792733,42.378324 C126.502497,41.8735276 128.380958,42.7111322 128.898447,44.3863414 C129.584633,46.0682513 128.561054,47.7434605 126.851289,48.4157777 L126.851289,48.4157777 Z M122.228086,36.3587392 C121.712877,36.6893138 121.204507,36.8635355 120.687018,36.8635355 C119.494742,36.8635355 118.462045,36.3587392 117.953675,35.3558473 C117.098792,33.8459255 117.616281,31.8379081 119.14823,31.0003035 C120.687018,30.162699 122.736456,30.6697289 123.591338,32.1707163 C124.286642,33.6806381 123.769154,35.5211346 122.228086,36.3587392 L122.228086,36.3587392 Z M101.373518,110.905546 C102.74361,109.902654 104.793047,110.233229 105.816626,111.577863 C106.840205,112.920264 106.502812,114.928281 105.130441,115.931173 C104.615232,116.261748 103.938165,116.603491 103.251979,116.603491 C102.2284,116.603491 101.204821,116.096461 100.687333,115.258856 C99.6637537,113.914221 99.8324505,111.908438 101.373518,110.905546 L101.373518,110.905546 Z M90.5974425,116.934065 C92.307207,116.261748 94.1856683,116.934065 94.8718537,118.609274 C95.5580392,120.284483 94.8718537,122.12498 93.1620892,122.797297 C92.6468802,122.962584 92.307207,123.127872 91.791998,123.127872 C90.5974425,123.127872 89.396048,122.457788 88.887678,121.287375 C88.3815877,119.612166 89.0563747,117.77167 90.5974425,116.934065 L90.5974425,116.934065 Z M78.9778829,120.791513 C80.6876474,120.458705 82.3974119,121.461597 82.7348055,123.304327 C83.072199,124.979536 82.04862,126.654745 80.1701587,126.98532 L80.1701587,126.98532 L79.4839732,126.98532 C77.9429055,126.98532 76.5819329,125.982428 76.4041174,124.472506 C76.0644442,122.797297 77.2681184,121.122088 78.9778829,120.791513 L78.9778829,120.791513 Z M91.9698135,11.5611767 C91.4523247,11.5611767 91.1149312,11.3958894 90.5974425,11.2306021 C88.887678,10.5582848 88.2014925,8.71778836 88.887678,7.04257922 C89.5738635,5.36737008 91.4523247,4.69505281 93.1620892,5.36737008 C94.8718537,6.03968735 95.5580392,7.88018379 94.8718537,9.55539293 C94.3657634,10.8888594 93.330786,11.5611767 91.9698135,11.5611767 L91.9698135,11.5611767 Z M112.993078,26.4727716 C112.138196,26.4727716 111.283313,26.142197 110.599407,25.4698798 C109.404852,24.1252452 109.573549,22.1194615 110.768104,20.9490487 C112.138196,19.7808695 114.187633,19.9461568 115.379909,21.1165696 C116.574465,22.4589705 116.405768,24.4669879 115.211212,25.6351671 C114.534146,26.3074843 113.679263,26.4727716 112.993078,26.4727716 L112.993078,26.4727716 Z M115.051634,102.694787 C116.421726,103.862967 116.421726,105.879918 115.220331,107.213385 C114.534146,107.885702 113.679263,108.21851 112.824381,108.21851 C112.138196,108.21851 111.283313,107.885702 110.599407,107.380906 C109.227037,106.210493 109.227037,104.195775 110.428431,102.860075 C111.632105,101.526608 113.679263,101.526608 115.051634,102.694787 L115.051634,102.694787 Z M103.251979,18.0967259 C102.565794,18.0967259 101.879609,17.9314386 101.373518,17.4244087 C100.001147,16.4215168 99.6637537,14.4067986 100.687333,13.0710985 C101.710912,11.726464 103.769468,11.3958894 105.130441,12.3987812 C106.502812,13.4016731 106.840205,15.4186249 105.816626,16.7520914 C105.299138,17.589696 104.275559,18.0967259 103.251979,18.0967259 L103.251979,18.0967259 Z M1.18359803,64.1649773 C1.18359803,28.820298 30.5869881,0 66.6698582,0 C67.8644137,0 68.7192959,0.507029966 69.4032017,1.34463454 L69.4032017,1.34463454 C69.7428749,1.8516645 69.9206904,2.34752641 69.9206904,3.01984368 C69.9206904,3.85744824 69.5810172,4.69505281 68.8971114,5.20208278 L68.8971114,5.20208278 C68.3796227,5.53265738 67.8712527,5.87216644 67.3560437,6.03968735 L66.6698582,6.03968735 L66.6698582,6.03968735 C34.1843326,6.03968735 7.68298283,32.005429 7.68298283,63.8344027 C7.68298283,95.6633763 34.1843326,121.629118 66.6698582,121.629118 C68.3796227,121.629118 69.9206904,122.971519 69.9206904,124.812015 C69.9206904,126.321937 68.726135,127.657637 67.3560437,127.997146 L67.1873469,127.997146 L66.6698582,127.997146 L66.6698582,127.997146 C30.5869881,128.329955 1.18359803,99.5096565 1.18359803,64.1649773 L1.18359803,64.1649773 Z" id="Imported-Layers" sketch:type="MSShapeGroup"></path>
            </g>
        </g>
    </g>
</svg>