<?xml version="1.0" encoding="UTF-8" standalone="no"?>
<svg width="256px" height="256px" viewBox="0 0 256 256" version="1.1" xmlns="http://www.w3.org/2000/svg" xmlns:xlink="http://www.w3.org/1999/xlink" xmlns:sketch="http://www.bohemiancoding.com/sketch/ns">
    <!-- Generator: Sketch 3.3.3 (12072) - http://www.bohemiancoding.com/sketch -->
    <title>ol-logo-darkbg-rtansp</title>
    <desc>Created with Sketch.</desc>
    <defs>
        <filter x="-50%" y="-50%" width="200%" height="200%" filterUnits="objectBoundingBox" id="filter-1">
            <feOffset dx="-1" dy="1" in="SourceAlpha" result="shadowOffsetOuter1"></feOffset>
            <feGaussianBlur stdDeviation="1" in="shadowOffsetOuter1" result="shadowBlurOuter1"></feGaussianBlur>
            <feColorMatrix values="0 0 0 0 0   0 0 0 0 0   0 0 0 0 0  0 0 0 0.0714900362 0" in="shadowBlurOuter1" type="matrix" result="shadowMatrixOuter1"></feColorMatrix>
            <feMerge>
                <feMergeNode in="shadowMatrixOuter1"></feMergeNode>
                <feMergeNode in="SourceGraphic"></feMergeNode>
            </feMerge>
        </filter>
        <filter x="-50%" y="-50%" width="200%" height="200%" filterUnits="objectBoundingBox" id="filter-2">
            <feOffset dx="-1" dy="2" in="SourceAlpha" result="shadowOffsetOuter1"></feOffset>
            <feGaussianBlur stdDeviation="0.5" in="shadowOffsetOuter1" result="shadowBlurOuter1"></feGaussianBlur>
            <feColorMatrix values="0 0 0 0 0   0 0 0 0 0   0 0 0 0 0  0 0 0 0.0714900362 0" in="shadowBlurOuter1" type="matrix" result="shadowMatrixOuter1"></feColorMatrix>
            <feMerge>
                <feMergeNode in="shadowMatrixOuter1"></feMergeNode>
                <feMergeNode in="SourceGraphic"></feMergeNode>
            </feMerge>
        </filter>
    </defs>
    <g id="blog" stroke="none" stroke-width="1" fill="none" fill-rule="evenodd" sketch:type="MSPage">
        <g id="ol-logo-darkbg-rtansp" sketch:type="MSArtboardGroup">
            <g id="Imported-Layers-+-OPENLEDGER" sketch:type="MSLayerGroup" transform="translate(23.000000, 57.000000)">
                <path d="M139.277678,57.4820096 C140.239397,58.0055125 140.55665,59.2605233 140.023152,60.2028284 C139.700208,60.8310319 138.956156,61.1465296 138.315959,61.1465296 C137.994437,61.1465296 137.677184,61.043225 137.355662,60.8310319 C136.393943,60.307529 136.07669,59.0525182 136.610188,58.108817 C137.038409,57.2754005 138.315959,56.9585067 139.277678,57.4820096 L139.277678,57.4820096 Z M139.600622,51.3032799 C139.922143,50.2562742 141.095839,49.7327713 142.162834,50.0496651 C143.22983,50.3665588 143.763328,51.5168691 143.440384,52.5638748 L143.440384,52.5638748 C143.11744,53.4028753 142.373388,53.9263782 141.516946,53.9263782 C141.306392,53.9263782 141.090148,53.9263782 140.878171,53.8230736 C139.811176,53.3972913 139.277678,52.3502856 139.600622,51.3032799 L139.600622,51.3032799 Z M143.440384,38.1124039 L143.22983,38.1124039 C142.162834,38.1124039 141.306392,37.3822919 141.201116,36.3352862 C141.095839,35.2882805 141.83989,34.2412748 143.012163,34.1379702 C144.079159,34.0332697 145.146155,34.7647777 145.251432,35.9150879 C145.363822,37.0653982 144.50738,38.0090994 143.440384,38.1124039 L143.440384,38.1124039 Z M143.012163,46.0682513 C141.945167,45.9649468 141.090148,45.0212456 141.201116,43.8709353 C141.306392,42.8239296 142.268111,41.9849291 143.440384,42.0938176 C144.50738,42.1971222 145.363822,43.1408234 145.251432,44.2911336 C145.146155,45.3381393 144.291136,46.0682513 143.22414,46.0682513 L143.012163,46.0682513 L143.012163,46.0682513 Z M112.708057,4.82181031 L112.281259,4.82181031 C111.214263,4.61380517 110.468788,3.56679946 110.680765,2.51979375 C110.891319,1.47278803 111.958315,0.742676052 113.025311,0.949285179 L113.025311,0.949285179 C114.092307,1.15729031 114.837781,2.20429603 114.625804,3.25130174 C114.526218,4.18802285 113.669776,4.82181031 112.708057,4.82181031 L112.708057,4.82181031 Z M142.162834,30.2598611 C141.950858,30.3631657 141.734613,30.3631657 141.522637,30.3631657 C140.667618,30.3631657 139.922143,29.8396628 139.600622,29.0006622 C139.277678,27.9536565 139.811176,26.8033462 140.878171,26.4864525 C141.945167,26.1709548 143.11744,26.6944576 143.440384,27.7414633 C143.868605,28.7926571 143.22983,29.8396628 142.162834,30.2598611 L142.162834,30.2598611 Z M139.277678,22.724212 C138.956156,22.9308211 138.638903,23.0397097 138.315959,23.0397097 C137.571907,23.0397097 136.927441,22.724212 136.610188,22.0974046 C136.07669,21.1537034 136.399634,19.8986926 137.355662,19.3751897 C138.315959,18.8516868 139.594931,19.1685806 140.128429,20.1066977 C140.562341,21.0503988 140.239397,22.2007091 139.277678,22.724212 L139.277678,22.724212 Z M126.263173,69.3159662 C127.118192,68.6891587 128.397165,68.8957679 129.03594,69.7361645 C129.674715,70.575165 129.464161,71.8301759 128.607719,72.4569833 C128.286197,72.6635924 127.863667,72.8771816 127.435446,72.8771816 C126.796671,72.8771816 126.157896,72.5602879 125.834952,72.036785 C125.196177,71.1963884 125.301454,69.9427736 126.263173,69.3159662 L126.263173,69.3159662 Z M119.538254,73.0837907 C120.605249,72.6635924 121.777522,73.0837907 122.205743,74.1307964 C122.633964,75.1778021 122.205743,76.3281124 121.138747,76.7483107 C120.817226,76.8516153 120.605249,76.9549198 120.283728,76.9549198 C119.538254,76.9549198 118.788511,76.5361176 118.471258,75.8046096 C118.155427,74.7576038 118.576535,73.6072936 119.538254,73.0837907 L119.538254,73.0837907 Z M112.286949,75.4946959 C113.353945,75.2866907 114.420941,75.9134982 114.631495,77.0652044 C114.842049,78.1122102 114.203274,79.1592159 113.031001,79.365825 L113.031001,79.365825 L112.60278,79.365825 C111.641061,79.365825 110.791733,78.7390176 110.680765,77.7953164 C110.468788,76.7483107 111.219954,75.701305 112.286949,75.4946959 L112.286949,75.4946959 Z M120.394696,7.22573542 C120.071752,7.22573542 119.861198,7.12243086 119.538254,7.01912629 C118.471258,6.598928 118.043037,5.44861773 118.471258,4.40161201 C118.899479,3.3546063 120.071752,2.93440801 121.138747,3.3546063 C122.205743,3.77480459 122.633964,4.92511487 122.205743,5.97212058 C121.889913,6.80553713 121.244024,7.22573542 120.394696,7.22573542 L120.394696,7.22573542 Z M133.514477,16.5454823 C132.980979,16.5454823 132.447481,16.3388731 132.020683,15.9186748 C131.275208,15.0782783 131.380485,13.8246634 132.12596,13.0931554 C132.980979,12.3630434 134.259952,12.466348 135.004003,13.197856 C135.749478,14.0368566 135.644201,15.2918674 134.898726,16.0219794 C134.476196,16.4421777 133.942698,16.5454823 133.514477,16.5454823 L133.514477,16.5454823 Z M134.79914,64.1842422 C135.65416,64.9143541 135.65416,66.174949 134.904417,67.0083656 C134.476196,67.4285639 133.942698,67.636569 133.4092,67.636569 C132.980979,67.636569 132.447481,67.4285639 132.020683,67.1130661 C131.164241,66.3815582 131.164241,65.1223593 131.913983,64.2875467 C132.665148,63.4541302 133.942698,63.4541302 134.79914,64.1842422 L134.79914,64.1842422 Z M127.435446,11.3104537 C127.007225,11.3104537 126.579004,11.2071491 126.263173,10.8902554 C125.406731,10.263448 125.196177,9.00424912 125.834952,8.16943657 C126.473727,7.32903998 127.75839,7.12243086 128.607719,7.74923828 C129.464161,8.3760457 129.674715,9.63664057 129.03594,10.4700571 C128.712996,10.99356 128.074221,11.3104537 127.435446,11.3104537 L127.435446,11.3104537 Z M63.7386364,40.1031108 C63.7386364,18.0126863 82.0881204,0 104.606002,0 C105.351476,0 105.884974,0.316893729 106.311772,0.840396585 L106.311772,0.840396585 C106.523749,1.15729031 106.634717,1.467204 106.634717,1.8874023 C106.634717,2.41090515 106.42274,2.93440801 105.995942,3.25130174 L105.995942,3.25130174 C105.672998,3.45791087 105.355744,3.67010402 105.034223,3.77480459 L104.606002,3.77480459 L104.606002,3.77480459 C84.3330798,3.77480459 67.7946434,20.0033931 67.7946434,39.8965017 C67.7946434,59.7896102 84.3330798,76.0181987 104.606002,76.0181987 C105.672998,76.0181987 106.634717,76.8571993 106.634717,78.0075096 C106.634717,78.9512107 105.889242,79.7860233 105.034223,79.9982164 L104.928946,79.9982164 L104.606002,79.9982164 L104.606002,79.9982164 C82.0881204,80.2062216 63.7386364,62.1935353 63.7386364,40.1031108 L63.7386364,40.1031108 Z" id="Imported-Layers" fill="#4990E2" filter="url(#filter-1)" sketch:type="MSShapeGroup"></path>
                <path d="M10.4416644,144.359424 C16.3422086,144.359424 20.3557768,139.926528 20.3557768,134.025984 C20.3557768,128.125439 16.3422086,123.692543 10.4416644,123.692543 C4.51116819,123.692543 0.527552054,128.125439 0.527552054,134.025984 C0.527552054,139.926528 4.51116819,144.359424 10.4416644,144.359424 L10.4416644,144.359424 Z M10.4416644,142.142976 C5.94886424,142.142976 3.10342414,138.668544 3.10342414,134.025984 C3.10342414,129.353471 5.94886424,125.908991 10.4416644,125.908991 C14.9045126,125.908991 17.7799047,129.353471 17.7799047,134.025984 C17.7799047,138.668544 14.9045126,142.142976 10.4416644,142.142976 L10.4416644,142.142976 Z M29.2315531,144 L29.2315531,136.06272 L34.7726733,136.06272 C38.7263374,136.06272 41.0326415,133.307136 41.0326415,130.042368 C41.0326415,126.777599 38.7862415,124.022015 34.7726733,124.022015 L26.745537,124.022015 L26.745537,144 L29.2315531,144 Z M34.4731533,133.846272 L29.2315531,133.846272 L29.2315531,126.238463 L34.4731533,126.238463 C36.8393614,126.238463 38.4567694,127.795967 38.4567694,130.042368 C38.4567694,132.288768 36.8393614,133.846272 34.4731533,133.846272 L34.4731533,133.846272 Z M59.9123862,144 L59.9123862,141.783552 L49.3093779,141.783552 L49.3093779,134.894592 L59.7027222,134.894592 L59.7027222,132.678144 L49.3093779,132.678144 L49.3093779,126.238463 L59.9123862,126.238463 L59.9123862,124.022015 L46.8233618,124.022015 L46.8233618,144 L59.9123862,144 Z M82.8955551,144 L82.8955551,124.022015 L80.409539,124.022015 L80.409539,139.627008 L68.9079706,124.022015 L66.3620505,124.022015 L66.3620505,144 L68.8480666,144 L68.8480666,128.065535 L80.499395,144 L82.8955551,144 Z M101.355972,144 L101.355972,143.10144 L91.3220515,143.10144 L91.3220515,124.022015 L90.3635874,124.022015 L90.3635874,144 L101.355972,144 Z M120.026053,144 L120.026053,143.10144 L108.7641,143.10144 L108.7641,134.175744 L119.816389,134.175744 L119.816389,133.277184 L108.7641,133.277184 L108.7641,124.920575 L120.026053,124.920575 L120.026053,124.022015 L107.805636,124.022015 L107.805636,144 L120.026053,144 Z M132.945349,144 C139.145413,144 142.889413,139.417344 142.889413,134.025984 C142.889413,128.694527 139.145413,124.022015 132.945349,124.022015 L127.014853,124.022015 L127.014853,144 L132.945349,144 Z M132.945349,143.10144 L127.973317,143.10144 L127.973317,124.920575 L132.945349,124.920575 C138.606277,124.920575 141.841093,129.023999 141.841093,134.025984 C141.841093,139.087872 138.606277,143.10144 132.945349,143.10144 L132.945349,143.10144 Z M159.283142,144.389376 C162.278342,144.389376 164.884166,143.10144 166.59143,141.184512 L166.59143,134.41536 L157.396166,134.41536 L157.396166,135.31392 L165.632966,135.31392 L165.632966,140.795136 C164.464838,142.023168 162.218438,143.490816 159.283142,143.490816 C154.281158,143.490816 150.357446,139.597056 150.357446,134.025984 C150.357446,128.395007 154.281158,124.591103 159.283142,124.591103 C161.94887,124.591103 164.404934,125.669375 165.962438,127.436543 L166.59143,126.777599 C164.64455,124.770815 162.308294,123.692543 159.283142,123.692543 C153.742022,123.692543 149.309126,127.885823 149.309126,134.025984 C149.309126,140.166144 153.742022,144.389376 159.283142,144.389376 L159.283142,144.389376 Z M185.920455,144 L185.920455,143.10144 L174.658503,143.10144 L174.658503,134.175744 L185.710791,134.175744 L185.710791,133.277184 L174.658503,133.277184 L174.658503,124.920575 L185.920455,124.920575 L185.920455,124.022015 L173.700039,124.022015 L173.700039,144 L185.920455,144 Z M205.968328,144 L199.798216,135.373824 C203.033032,135.373824 205.69876,133.337088 205.69876,129.682943 C205.69876,126.028799 203.033032,124.022015 199.798216,124.022015 L192.909255,124.022015 L192.909255,144 L193.867719,144 L193.867719,135.373824 L198.660039,135.373824 L204.740296,144 L205.968328,144 Z M199.798216,134.475264 L193.867719,134.475264 L193.867719,124.920575 L199.798216,124.920575 C202.733512,124.920575 204.65044,126.927359 204.65044,129.682943 C204.65044,132.438528 202.733512,134.475264 199.798216,134.475264 L199.798216,134.475264 Z" id="OPENLEDGER" fill="#FFFFFF" filter="url(#filter-2)" sketch:type="MSShapeGroup"></path>
            </g>
        </g>
    </g>
</svg>