<?xml version="1.0" encoding="UTF-8" standalone="no"?>
<svg width="400px" height="300px" viewBox="0 0 400 300" version="1.1" xmlns="http://www.w3.org/2000/svg" xmlns:xlink="http://www.w3.org/1999/xlink" xmlns:sketch="http://www.bohemiancoding.com/sketch/ns">
    <!-- Generator: Sketch 3.3.3 (12072) - http://www.bohemiancoding.com/sketch -->
    <title>logo-dark-1</title>
    <desc>Created with Sketch.</desc>
    <defs></defs>
    <g id="OLED-LandingPage" stroke="none" stroke-width="1" fill="none" fill-rule="evenodd" sketch:type="MSPage">
        <g id="logo-dark-1" sketch:type="MSArtboardGroup">
            <g id="Group" sketch:type="MSLayerGroup" transform="translate(95.000000, 115.000000)">
                <path id="Shape-3" sketch:type="MSShapeGroup"></path>
                <path d="M82.0555556,29.721166 L82.0555556,25.9259259 L85.962963,28.5628785 L85.962963,32.4074074 L82.0555556,29.721166 Z" id="Shape-4" fill="#D2D2D2" sketch:type="MSShapeGroup"></path>
                <path d="M77.8579861,38.8191955 C76.9451166,37.8044604 75.7975092,36.997876 74.5716559,36.4254613 C73.2936387,35.8530466 71.9112934,35.5408204 70.3724563,35.5408204 C68.1294056,35.5408204 66.1210927,36.1392539 64.4518457,37.3621399 C63.4346482,38.0646489 62.5739427,38.9753086 61.9218931,40.0160627 L61.9218931,22.037037 L59.9135802,22.037037 L59.9135802,58.0991637 L61.8958111,58.0991637 L61.8958111,53.8580911 C62.6000247,54.8988451 63.4346482,55.783486 64.4257637,56.5120138 C66.1210927,57.7348998 68.1033236,58.3333333 70.3463743,58.3333333 C71.8330475,58.3333333 73.2675567,58.0211071 74.5455739,57.4486924 C75.8235912,56.8762777 76.9190346,56.0957122 77.8319041,55.080977 C78.7447736,54.0662419 79.5011511,52.8433559 79.9706269,51.4903757 C80.4401026,50.1373955 80.7530864,48.6022833 80.7530864,46.9370769 C80.7530864,45.3239081 80.4922666,43.788796 79.9706269,42.383778 C79.5272331,41.0828355 78.7969375,39.8599496 77.8579861,38.8191955 L77.8579861,38.8191955 Z M78.8230195,47.0151334 C78.8230195,48.4201513 78.6143636,49.6690562 78.2231339,50.8659233 C77.8319041,52.0107527 77.2059364,52.999469 76.5278048,53.7800345 C75.7714272,54.6126377 74.8585578,55.2110713 73.8674423,55.6533917 C72.8241629,56.0957122 71.6765556,56.3559007 70.3985383,56.3559007 C69.120521,56.3559007 67.9989957,56.1477499 66.9296343,55.6533917 C65.8863549,55.2110713 64.9995674,54.5606 64.2692718,53.7800345 C63.5128942,52.9474313 62.9651725,51.9847338 62.5217788,50.8659233 C62.130549,49.7210939 61.9218931,48.4201513 61.9218931,47.0151334 C61.9218931,45.6101155 62.130549,44.3612107 62.5217788,43.1643436 C62.9130085,42.0195141 63.5389762,41.0307978 64.2692718,40.1981946 C65.0256493,39.3655914 65.9385188,38.7151201 66.9296343,38.2727997 C67.9729137,37.8044604 69.120521,37.5702907 70.3463743,37.5702907 C71.5722276,37.5702907 72.745917,37.7784415 73.7631144,38.2727997 C74.8063938,38.741139 75.6931813,39.3655914 76.4234769,40.1981946 C77.1798544,41.0307978 77.7275761,42.0195141 78.1709699,43.1643436 C78.6143636,44.3612107 78.8230195,45.6101155 78.8230195,47.0151334 L78.8230195,47.0151334 Z" id="Shape-5" fill="#D2D2D2" sketch:type="MSShapeGroup"></path>
                <rect id="Rectangle-path-2" fill="#D2D2D2" sketch:type="MSShapeGroup" x="84.6604938" y="36.2962963" width="2.60493827" height="23.3333333"></rect>
                <path d="M98.6078911,55.6440526 C98.0204449,56.1612219 97.3528924,56.4198066 96.5518294,56.4198066 C95.7507663,56.4198066 95.0832138,56.1612219 94.5758739,55.5923356 C94.0952361,55.0234493 93.7748109,54.2994122 93.7748109,53.3685073 L93.7748109,37.9310013 L99.7293793,37.9310013 L99.7293793,35.9398991 L93.7748109,35.9398991 L93.7748109,28.5185185 L91.7454512,28.5185185 L91.7454512,35.9398991 L88.5679012,35.9398991 L88.5679012,37.9051428 L91.7454512,37.9051428 L91.7454512,53.3426488 C91.7454512,54.7648646 92.1993869,55.9802126 93.0805563,56.9111175 C93.9884277,57.8678809 95.136618,58.3333333 96.5251273,58.3333333 C97.1926798,58.3333333 97.8335302,58.2557579 98.3675722,57.9971732 C98.9016142,57.7903055 99.4089541,57.5317208 99.8361877,57.1179853 L100.290123,56.7818252 L99.115231,55.1010247 L98.6078911,55.6440526 L98.6078911,55.6440526 Z" id="Shape-6" fill="#D2D2D2" sketch:type="MSShapeGroup"></path>
                <path d="M115.304158,48.8419584 C114.708003,48.3625063 114.008169,47.9895992 113.256495,47.7232369 C112.556661,47.4568747 111.779068,47.2437849 111.079233,47.0040589 L109.731405,46.6045155 C109.213009,46.4713343 108.642774,46.2848808 108.072539,46.1250634 C107.605982,45.9386098 107.061667,45.6722476 106.64695,45.4058853 C106.258154,45.0862506 105.895277,44.6867073 105.636079,44.2072552 C105.376881,43.7278031 105.247282,43.0352613 105.247282,42.2361745 C105.247282,41.5702689 105.376881,40.9842719 105.687918,40.5048199 C105.998956,40.0253678 106.387753,39.5991882 106.776549,39.3061898 C107.243105,38.986555 107.813341,38.7201928 108.435416,38.5870117 C109.031571,38.4005581 109.705485,38.3206494 110.30164,38.3206494 C111.390271,38.3206494 112.401142,38.4538305 113.178736,38.7734652 C114.008169,39.0930999 114.837602,39.4926433 115.615196,40.1052765 L116.081752,40.4515474 L117.222222,38.8533739 L116.781586,38.507103 C115.822554,37.7080162 114.811682,37.1752917 113.748971,36.7757484 C112.71218,36.4294774 111.51987,36.2962963 110.27572,36.2962963 C109.446287,36.2962963 108.590934,36.376205 107.787421,36.615931 C106.957988,36.8290208 106.180394,37.201928 105.5324,37.7346525 C104.832566,38.2141045 104.26233,38.8533739 103.847614,39.5991882 C103.432897,40.3450025 103.199619,41.3039066 103.199619,42.3160832 C103.199619,43.5147133 103.406977,44.5002537 103.847614,45.2727042 C104.28825,45.9918823 104.754806,46.6045155 105.376881,47.1106038 C105.973036,47.5634196 106.64695,47.9096905 107.346785,48.1494165 C107.994779,48.3625063 108.642774,48.5489599 109.161169,48.682141 L110.508998,49.0816844 C111.208832,49.268138 111.856827,49.4812278 112.478902,49.6943176 C113.049137,49.9074074 113.567533,50.1737697 114.008169,50.4934044 C114.396966,50.8130391 114.759843,51.2125824 114.967201,51.6920345 C115.226399,52.1714866 115.304158,52.8640284 115.304158,53.6631152 C115.304158,54.3822933 115.174559,54.9949264 114.837602,55.4477423 C114.526565,55.9271943 114.137768,56.3533739 113.619372,56.6463724 C113.152816,56.9660071 112.530741,57.1790969 111.882747,57.3655505 C111.182913,57.4987316 110.534918,57.5786403 109.835084,57.5786403 C108.565014,57.5786403 107.398624,57.312278 106.309993,56.8594622 C105.221362,56.4066464 104.210491,55.6874683 103.355138,54.8084729 L102.888582,54.355657 L101.592593,55.9271943 L101.981389,56.3267377 C103.07002,57.3921867 104.236411,58.1912735 105.584239,58.7772704 C106.932068,59.3099949 108.357656,59.6296296 109.835084,59.6296296 C110.664517,59.6296296 111.51987,59.549721 112.349303,59.3099949 C113.230576,59.1235413 114.034089,58.7772704 114.733923,58.3244546 C115.433757,57.8450025 116.029912,57.2590056 116.522388,56.486555 C117.014864,55.7141045 117.222222,54.7552004 117.222222,53.6364789 C117.222222,52.464485 117.040784,51.4789447 116.651987,50.7331304 C116.392789,49.9606799 115.900313,49.3214105 115.304158,48.8419584 L115.304158,48.8419584 Z" id="Shape-7" fill="#D2D2D2" sketch:type="MSShapeGroup"></path>
                <path d="M135.711532,37.970718 C134.937035,37.2107234 134.055711,36.6603824 132.98744,36.2148683 C131.945876,35.7693542 130.824191,35.5597005 129.622386,35.5597005 C127.966565,35.5597005 126.444279,36.0052146 125.082233,36.8438294 C124.36115,37.3155502 123.693481,37.8658912 123.159345,38.521059 L123.159345,22.037037 L121.12963,22.037037 L121.12963,58.3333333 L123.159345,58.3333333 L123.159345,44.0506752 C123.159345,43.159647 123.346292,42.2948255 123.640067,41.5348309 C123.960548,40.7486295 124.414564,40.0410483 124.975406,39.4645006 C125.562955,38.8879529 126.230625,38.4162321 127.031828,38.1017516 C127.806325,37.787271 128.687648,37.6300308 129.595679,37.6300308 C130.50371,37.6300308 131.33162,37.8134777 132.106116,38.1017516 C132.880613,38.4162321 133.574989,38.8879529 134.135832,39.4645006 C134.723381,40.0410483 135.177396,40.7486295 135.471171,41.5348309 C135.791652,42.2948255 135.951893,43.159647 135.951893,44.0506752 L135.951893,58.3333333 L138.061728,58.3333333 L138.061728,44.0506752 C138.061728,42.8713732 137.848074,41.7706913 137.394059,40.7486295 C137.046871,39.5955342 136.432615,38.7569194 135.711532,37.970718 L135.711532,37.970718 Z" id="Shape-8" fill="#D2D2D2" sketch:type="MSShapeGroup"></path>
                <path d="M157.20005,38.0898021 C156.535525,37.1575342 155.684933,36.3584475 154.515369,35.7990868 C153.398967,35.3196347 151.963593,35 150.28899,35 C149.518141,35 148.508062,35.0799087 147.338498,35.2663623 C146.142353,35.4528158 144.786722,35.8523592 143.377929,36.4383562 L142.793147,36.7047184 L143.643739,38.6225266 L144.175359,38.3561644 C145.424666,37.8234399 146.59423,37.4505327 147.65747,37.2907154 C148.773873,37.1575342 149.677627,37.0776256 150.342152,37.0776256 C151.671202,37.0776256 152.761023,37.2640791 153.558453,37.6103501 C154.355883,37.956621 154.993827,38.5159817 155.472285,39.1286149 C155.950743,39.7945205 156.269715,40.6468798 156.455782,41.5791476 C156.588687,42.3782344 156.721592,43.2838661 156.774754,44.2161339 C154.329302,43.7366819 152.176241,43.4436834 150.262409,43.4436834 C147.285336,43.4436834 144.919627,44.109589 143.298186,45.3614916 C142.181784,46.2671233 141.464097,47.2792998 141.145125,48.3447489 C140.826153,49.4101979 140.666667,50.369102 140.666667,51.194825 C140.666667,51.8074581 140.74641,52.5266362 140.985639,53.3523592 C141.198287,54.151446 141.597002,54.9505327 142.155203,55.6697108 C142.686823,56.3888889 143.484253,57.0015221 144.441169,57.5342466 C145.371504,58.0136986 146.59423,58.3333333 148.056185,58.3333333 C148.773873,58.3333333 149.571303,58.2534247 150.421895,58.0669711 C151.272487,57.8805175 152.123079,57.6141553 152.973671,57.2678843 C153.824263,56.9216134 154.674855,56.4155251 155.419123,55.8295282 C155.897581,55.4299848 156.455782,54.9238965 156.881078,54.4444444 L156.881078,58.1202435 L158.901235,58.1202435 L158.901235,45.6012177 C158.901235,44.0829528 158.821492,42.6978691 158.582263,41.4459665 C158.263291,40.1940639 157.811413,39.0487062 157.20005,38.0898021 L157.20005,38.0898021 Z M156.748173,46.3203957 L156.748173,48.2914764 C156.748173,49.0106545 156.66843,49.7564688 156.535525,50.4756469 C156.455782,51.194825 156.13681,51.8074581 155.684933,52.4467275 C155.206475,53.1659056 154.621693,53.7519026 153.983749,54.2313546 C153.319224,54.7108067 152.654699,55.1369863 151.963593,55.4299848 C151.245906,55.7496195 150.581381,55.9094368 149.863694,56.0958904 C149.146007,56.2290715 148.534643,56.3089802 147.896699,56.3089802 C146.833459,56.3089802 145.982867,56.1225266 145.26518,55.7762557 C144.547493,55.4299848 144.015873,54.9238965 143.67032,54.4444444 C143.271605,53.9649924 143.005795,53.3789954 142.819728,52.7929985 C142.686823,52.2070015 142.553918,51.674277 142.553918,51.2747336 C142.553918,50.608828 142.633661,49.8896499 142.899471,49.0372907 C143.112119,48.2648402 143.617158,47.5989346 144.361426,46.9863014 C145.663895,46.000761 147.524565,45.521309 150.02318,45.521309 C152.016755,45.521309 154.249559,45.7876712 156.748173,46.3203957 L156.748173,46.3203957 Z" id="Shape-9" fill="#D2D2D2" sketch:type="MSShapeGroup"></path>
                <path d="M172.964974,37.5328554 C172.438133,37.1833931 171.805923,36.8608124 171.121029,36.6188769 C170.409793,36.4038232 169.751242,36.2962963 168.987321,36.2962963 C167.564849,36.2962963 166.30043,36.6995221 165.088695,37.479092 C164.561853,37.8285544 164.035012,38.2855436 163.587197,38.823178 L163.587197,36.5651135 L161.506173,36.5651135 L161.506173,59.6296296 L163.587197,59.6296296 L163.587197,44.5489845 C163.587197,43.635006 163.718907,42.8285544 163.982328,42.1027479 C164.298433,41.3769415 164.640879,40.7048984 165.141379,40.167264 C165.615536,39.6296296 166.195062,39.1726404 166.853614,38.8500597 C167.959981,38.3661888 169.329768,38.2586619 170.436135,38.6618877 C170.910293,38.8500597 171.410792,39.1188769 171.858607,39.3876941 L172.517159,39.8446834 L173.228395,37.8016726 L172.964974,37.5328554 L172.964974,37.5328554 Z" id="Shape-10" fill="#D2D2D2" sketch:type="MSShapeGroup"></path>
                <path d="M175.271484,45.8712121 L194.067901,45.8712121 L194.013419,45.2083333 C193.931695,43.6969697 193.550319,42.2651515 193.087219,41.0189394 C192.596877,39.7727273 191.888606,38.7121212 191.016889,37.8106061 C190.145171,36.9090909 189.110006,36.219697 187.965876,35.7159091 C186.821746,35.2121212 185.459687,35 184.043145,35 C182.490398,35 180.992133,35.3181818 179.657315,35.9015152 C178.322497,36.4848485 177.178367,37.280303 176.224925,38.3409091 C175.298725,39.375 174.535972,40.6212121 174.018389,42.0795455 C173.528048,43.5113636 173.228395,45.0492424 173.228395,46.7462121 C173.228395,48.4431818 173.500807,50.0075758 174.018389,51.3863636 C174.508731,52.8181818 175.298725,54.0643939 176.224925,55.0719697 C177.151126,56.1060606 178.322497,56.9280303 179.657315,57.4848485 C180.992133,58.0416667 182.435915,58.3333333 184.043145,58.3333333 C185.813822,58.3333333 187.421052,58.0681818 188.892076,57.5378788 C190.390341,57.0606061 191.670677,56.2386364 192.733083,55.2575758 L193.196183,54.8598485 L191.861365,53.3484848 L191.371024,53.7462121 C190.444824,54.5151515 189.409659,55.125 188.129323,55.6022727 C186.90347,56.0530303 185.514169,56.2651515 184.015904,56.2651515 C182.735568,56.2651515 181.536956,56.0530303 180.501791,55.5492424 C179.466626,55.0454545 178.540426,54.4356061 177.750432,53.6401515 C177.01492,52.7916667 176.388372,51.8106061 175.979755,50.6704545 C175.571137,49.5037879 175.353207,48.1780303 175.353207,46.7462121 L175.353207,46.030303 C175.271484,45.9507576 175.271484,45.9242424 175.271484,45.8712121 L175.271484,45.8712121 Z M175.571137,43.8560606 C175.761825,42.9545455 176.061478,42.1590909 176.497337,41.4431818 C176.987679,40.5416667 177.586985,39.719697 178.322497,39.0833333 C179.058009,38.4204545 179.929726,37.9166667 180.883168,37.5719697 C181.809368,37.2272727 182.899016,37.0416667 184.043145,37.0416667 C185.323481,37.0416667 186.413128,37.2537879 187.339329,37.6515152 C188.265529,38.0492424 189.028282,38.5795455 189.682071,39.2954545 C190.308618,40.0113636 190.8262,40.8068182 191.180336,41.655303 C191.50723,42.3712121 191.670677,43.1136364 191.861365,43.8825758 L175.598378,43.8825758 L175.598378,43.8560606 L175.571137,43.8560606 Z" id="Shape-11" fill="#D2D2D2" sketch:type="MSShapeGroup"></path>
                <path d="M210.490425,50.6900629 C210.102068,49.9184932 209.610148,49.3065586 209.014667,48.8276532 C208.419185,48.3487478 207.720141,47.9762659 206.969317,47.7102074 C206.270273,47.4441488 205.493558,47.231302 204.794514,46.9918493 L203.448208,46.5927615 C202.930398,46.4597323 202.360807,46.2734913 201.791216,46.1138562 C201.325187,45.9276152 200.781486,45.6615567 200.367238,45.3954981 C199.97888,45.0762279 199.616413,44.6771401 199.357508,44.1982347 C199.098603,43.7193294 198.969151,43.0275772 198.969151,42.2294016 C198.969151,41.5642552 199.098603,40.9789265 199.409289,40.5000211 C199.719975,40.0211158 200.108333,39.5954221 200.548471,39.3027577 C201.014501,38.9834875 201.584092,38.7174289 202.205464,38.5843997 C202.800945,38.3981587 203.474099,38.3183411 204.06958,38.3183411 C205.156981,38.3183411 206.166711,38.4513704 206.943426,38.7706407 C207.771922,39.0899109 208.600419,39.4889987 209.377134,40.1009333 L209.843163,40.4468094 L210.982345,38.8504582 L210.542207,38.5045821 C209.584258,37.7064065 208.574528,37.1742895 207.513017,36.7752017 C206.477397,36.4293256 205.286434,36.2962963 204.04369,36.2962963 C203.215193,36.2962963 202.360807,36.3761139 201.558201,36.6155665 C200.781486,36.8284134 199.95299,37.2008953 199.305727,37.7330124 C198.606684,38.2119177 198.037092,38.8504582 197.622844,39.5954221 C197.182706,40.3669918 196.975582,41.2981967 196.975582,42.3092191 C196.975582,43.5064825 197.182706,44.4908991 197.622844,45.2624689 C198.062983,45.9808269 198.529012,46.5927615 199.150384,47.0982727 C199.745866,47.5505722 200.419019,47.8964483 201.118063,48.135901 C201.765325,48.3487478 202.412588,48.5349888 202.930398,48.6680181 L204.276704,49.0671059 C204.975748,49.2533468 205.62301,49.4661937 206.244383,49.6790405 C206.813974,49.8918873 207.331784,50.1579459 207.771922,50.4772161 C208.16028,50.7964863 208.522747,51.1955741 208.729871,51.6744795 C208.988776,52.1533849 209.066448,52.845137 209.066448,53.6433126 C209.066448,54.3616707 208.936995,54.9736053 208.600419,55.4259048 C208.289733,55.9048102 207.901375,56.3305038 207.383565,56.6231682 C206.917536,56.9424384 206.296164,57.1552853 205.648901,57.3415262 C203.784785,57.7938258 201.791216,57.6075848 200.082442,56.8626209 C198.995041,56.3837155 197.985311,55.6919633 197.130925,54.8139702 L196.664896,54.3616707 L195.37037,55.931416 L195.758728,56.3305038 C196.846129,57.394738 198.011202,58.1929136 199.357508,58.7782423 C200.703814,59.3103594 202.127792,59.6296296 203.603551,59.6296296 C204.432047,59.6296296 205.286434,59.5498121 206.11493,59.3103594 C206.995207,59.1241184 207.797813,58.7782423 208.496857,58.3259428 C209.1959,57.8470375 209.791382,57.2617087 210.283301,56.4901389 C210.749331,55.7185692 210.982345,54.7607585 210.982345,53.6433126 C211.060017,52.4460492 210.878783,51.4616327 210.490425,50.6900629 L210.490425,50.6900629 Z" id="Shape-12" fill="#D2D2D2" sketch:type="MSShapeGroup"></path>
                <path d="M15.6296296,43.6728846 L-1.77635684e-15,28.5185185 L-1.77635684e-15,46.6666667 L14.295393,46.6666667 C14.5404568,45.5804271 15.0033553,44.5471749 15.6296296,43.6728846 L15.6296296,43.6728846 Z" id="Shape-13" fill="#D2D2D2" sketch:type="MSShapeGroup"></path>
                <path d="M14.4000259,49.2592593 L1.77635684e-15,49.2592593 C0.327894328,54.2038946 2.34990935,58.6674303 5.49222999,62.2222222 L15.6296296,52.3062237 C15.0558146,51.3707522 14.5912976,50.3550974 14.4000259,49.2592593 L14.4000259,49.2592593 Z" id="Shape-14" fill="#D2D2D2" sketch:type="MSShapeGroup"></path>
                <path d="M36.4691358,32.6884227 C32.9511264,29.5881896 28.4394807,27.5757576 23.4444444,27.2222222 L23.4444444,41.4996115 C24.5723559,41.7171717 25.5659921,42.1250971 26.4253532,42.7777778 L36.4691358,32.6884227 L36.4691358,32.6884227 Z" id="Shape-15" fill="#D2D2D2" sketch:type="MSShapeGroup"></path>
                <path d="M28.654321,52.0855656 L38.062826,62.2222222 C40.8626761,58.6621632 42.6283472,54.2052954 42.9814815,49.2592593 L29.7389476,49.2592593 C29.4867088,50.3191242 29.1587985,51.2431089 28.654321,52.0855656 L28.654321,52.0855656 Z" id="Shape-16" fill="#D2D2D2" sketch:type="MSShapeGroup"></path>
                <path d="M29.9385738,46.6666667 L44.2839506,46.6666667 C43.9560563,41.7220313 41.9340413,37.2584956 38.7917206,33.7037037 L28.654321,43.6197022 C29.2554606,44.5551737 29.692653,45.5975563 29.9385738,46.6666667 L29.9385738,46.6666667 Z" id="Shape-17" fill="#D2D2D2" sketch:type="MSShapeGroup"></path>
                <path d="M7.81481481,64.5337995 C11.3328242,67.6340326 15.8444699,69.6464646 20.8395062,70 L20.8395062,55.7226107 C19.7115948,55.5050505 18.7179585,55.0971251 17.8585974,54.4444444 L7.81481481,64.5337995 L7.81481481,64.5337995 Z" id="Shape-18" fill="#D2D2D2" sketch:type="MSShapeGroup"></path>
                <path d="M23.4444444,55.7226107 L23.4444444,70 C28.4394807,69.6736597 32.9511264,67.6340326 36.4691358,64.5337995 L26.5327733,54.4444444 C25.5659921,55.0971251 24.5455008,55.5050505 23.4444444,55.7226107 L23.4444444,55.7226107 Z" id="Shape-19" fill="#D2D2D2" sketch:type="MSShapeGroup"></path>
                <path d="M0.0545536811,24.1384965 C3.9005882,27.8379835 15.9842286,39.5136693 18.0027148,41.4814815 C18.8755737,41.0092066 19.7757094,40.5894066 20.8395062,40.3795066 L20.8395062,17.7890224 L0,7.10542736e-15 C-1.93813609e-15,0.0262374962 0.0545536811,23.5875091 0.0545536811,24.1384965 L0.0545536811,24.1384965 Z" id="Shape-20" fill="#D2D2D2" sketch:type="MSShapeGroup"></path>
            </g>
        </g>
    </g>
</svg>