<?xml version="1.0" encoding="UTF-8" standalone="no"?>
<svg width="37px" height="38px" viewBox="0 0 37 38" version="1.1" xmlns="http://www.w3.org/2000/svg" xmlns:xlink="http://www.w3.org/1999/xlink" xmlns:sketch="http://www.bohemiancoding.com/sketch/ns">
    <!-- Generator: Sketch 3.3.3 (12072) - http://www.bohemiancoding.com/sketch -->
    <title>Imported Layers Copy</title>
    <desc>Created with Sketch.</desc>
    <defs>
        <filter x="-50%" y="-50%" width="200%" height="200%" filterUnits="objectBoundingBox" id="filter-1">
            <feOffset dx="0" dy="3" in="SourceAlpha" result="shadowOffsetOuter1"></feOffset>
            <feGaussianBlur stdDeviation="2" in="shadowOffsetOuter1" result="shadowBlurOuter1"></feGaussianBlur>
            <feColorMatrix values="0 0 0 0 0   0 0 0 0 0   0 0 0 0 0  0 0 0 0.0741253397 0" in="shadowBlurOuter1" type="matrix" result="shadowMatrixOuter1"></feColorMatrix>
            <feMerge>
                <feMergeNode in="shadowMatrixOuter1"></feMergeNode>
                <feMergeNode in="SourceGraphic"></feMergeNode>
            </feMerge>
        </filter>
    </defs>
    <g id="OLED-LandingPage" stroke="none" stroke-width="1" fill="none" fill-rule="evenodd" sketch:type="MSPage">
        <g id="OLAD-landing-v0.0.1-Copy-2" sketch:type="MSArtboardGroup" transform="translate(-146.000000, -55.000000)" filter="url(#filter-1)" fill="#4990E2">
            <path d="M178.690327,77.6720157 C179.067829,77.8782915 179.19236,78.3728032 178.982947,78.7440996 C178.856182,78.9916305 178.56412,79.115946 178.312825,79.115946 C178.186618,79.115946 178.062087,79.0752409 177.935881,78.9916305 C177.558379,78.7853547 177.433848,78.290843 177.643261,77.9189966 C177.81135,77.5906056 178.312825,77.46574 178.690327,77.6720157 L178.690327,77.6720157 Z M178.817092,75.2374118 C178.943298,74.8248603 179.404007,74.6185845 179.822833,74.7434501 C180.24166,74.8683157 180.451073,75.3215723 180.324308,75.7341238 L180.324308,75.7341238 C180.197543,76.0647151 179.905482,76.2709908 179.569304,76.2709908 C179.486655,76.2709908 179.401773,76.2709908 179.318566,76.2302857 C178.89974,76.0625148 178.690327,75.6499633 178.817092,75.2374118 L178.817092,75.2374118 Z M180.324308,70.0398129 L180.24166,70.0398129 C179.822833,70.0398129 179.486655,69.752127 179.445331,69.3395755 C179.404007,68.927024 179.696069,68.5144725 180.156219,68.4737674 C180.575046,68.4325122 180.993872,68.7207482 181.035196,69.1740048 C181.079312,69.6272614 180.743135,69.9991078 180.324308,70.0398129 L180.324308,70.0398129 Z M180.156219,73.1746543 C179.737393,73.1339492 179.401773,72.7621028 179.445331,72.3088462 C179.486655,71.8962947 179.864158,71.5657034 180.324308,71.6086087 C180.743135,71.6493138 181.079312,72.0211602 181.035196,72.4744168 C180.993872,72.8869683 180.658252,73.1746543 180.239426,73.1746543 L180.156219,73.1746543 L180.156219,73.1746543 Z M168.260992,56.9223253 L168.093461,56.9223253 C167.674635,56.840365 167.382015,56.4278135 167.465221,56.015262 C167.54787,55.6027105 167.966696,55.3150246 168.385523,55.3964348 L168.385523,55.3964348 C168.804349,55.478395 169.096969,55.8909465 169.013762,56.303498 C168.974672,56.6725941 168.638494,56.9223253 168.260992,56.9223253 L168.260992,56.9223253 Z M179.822833,66.9456766 C179.739627,66.9863817 179.654744,66.9863817 179.571538,66.9863817 C179.235918,66.9863817 178.943298,66.7801059 178.817092,66.4495147 C178.690327,66.0369632 178.89974,65.5837066 179.318566,65.458841 C179.737393,65.3345255 180.197543,65.5408012 180.324308,65.9533527 C180.492397,66.3675544 180.24166,66.7801059 179.822833,66.9456766 L179.822833,66.9456766 Z M178.690327,63.9764059 C178.56412,64.0578161 178.439589,64.1007214 178.312825,64.1007214 C178.020763,64.1007214 177.767792,63.9764059 177.643261,63.7294251 C177.433848,63.3575787 177.560612,62.8630669 177.935881,62.6567912 C178.312825,62.4505154 178.814858,62.575381 179.024271,62.9450272 C179.194594,63.3168736 179.067829,63.7701302 178.690327,63.9764059 L178.690327,63.9764059 Z M173.581762,82.3349479 C173.917381,82.087967 174.419415,82.1693772 174.670152,82.5005185 C174.920889,82.8311098 174.838241,83.3256215 174.502063,83.5726024 C174.375857,83.6540125 174.210001,83.738173 174.041912,83.738173 C173.791175,83.738173 173.540438,83.6133075 173.413673,83.4070317 C173.162935,83.0758904 173.20426,82.5819287 173.581762,82.3349479 L173.581762,82.3349479 Z M170.942039,83.8195832 C171.360865,83.6540125 171.821016,83.8195832 171.989105,84.2321347 C172.157194,84.6446862 171.989105,85.0979428 171.570278,85.2635135 C171.444072,85.3042186 171.360865,85.3449236 171.234659,85.3449236 C170.942039,85.3449236 170.647743,85.179903 170.523212,84.8916671 C170.39924,84.4791155 170.564537,84.025859 170.942039,83.8195832 L170.942039,83.8195832 Z M168.095695,84.7695518 C168.514521,84.6875916 168.933348,84.9345724 169.015996,85.3883791 C169.098644,85.8009306 168.847907,86.2134821 168.387756,86.2948922 L168.387756,86.2948922 L168.219667,86.2948922 C167.842165,86.2948922 167.508779,86.0479114 167.465221,85.676065 C167.382015,85.2635135 167.676868,84.850962 168.095695,84.7695518 L168.095695,84.7695518 Z M171.278217,57.8695435 C171.151452,57.8695435 171.068804,57.8288384 170.942039,57.7881333 C170.523212,57.6225627 170.355123,57.1693061 170.523212,56.7567546 C170.691301,56.3442031 171.151452,56.1786324 171.570278,56.3442031 C171.989105,56.5097738 172.157194,56.9630303 171.989105,57.3755818 C171.865132,57.7039728 171.611603,57.8695435 171.278217,57.8695435 L171.278217,57.8695435 Z M176.428106,61.541802 C176.218693,61.541802 176.00928,61.4603918 175.841749,61.2948211 C175.549129,60.9636798 175.590453,60.4697181 175.883073,60.1814821 C176.218693,59.8937962 176.720726,59.9345013 177.012788,60.2227373 C177.305408,60.5533286 177.264083,61.0478403 176.971463,61.3355262 C176.805608,61.5010969 176.596195,61.541802 176.428106,61.541802 L176.428106,61.541802 Z M176.932373,80.3128954 C177.267992,80.6005813 177.267992,81.0972933 176.973697,81.4256843 C176.805608,81.591255 176.596195,81.6732152 176.386782,81.6732152 C176.218693,81.6732152 176.00928,81.591255 175.841749,81.4669395 C175.505571,81.1787035 175.505571,80.6825416 175.799866,80.3536005 C176.09472,80.0252095 176.596195,80.0252095 176.932373,80.3128954 L176.932373,80.3128954 Z M174.041912,59.4790444 C173.873823,59.4790444 173.705734,59.4383394 173.581762,59.3134738 C173.245584,59.0664929 173.162935,58.570331 173.413673,58.2413899 C173.66441,57.9102486 174.168677,57.8288384 174.502063,58.0758193 C174.838241,58.3228001 174.920889,58.8195121 174.670152,59.1479031 C174.543387,59.3541789 174.29265,59.4790444 174.041912,59.4790444 L174.041912,59.4790444 Z M149.039095,70.8242108 C149.039095,62.1199241 156.241791,55.0223881 165.080703,55.0223881 C165.373323,55.0223881 165.582736,55.1472536 165.750267,55.3535294 L165.750267,55.3535294 C165.833474,55.478395 165.877032,55.6005102 165.877032,55.7660809 C165.877032,55.9723567 165.793825,56.1786324 165.626294,56.303498 L165.626294,56.303498 C165.49953,56.3849082 165.374999,56.4685186 165.248792,56.5097738 L165.080703,56.5097738 L165.080703,56.5097738 C157.123002,56.5097738 150.631193,62.9043221 150.631193,70.7428007 C150.631193,78.5812792 157.123002,84.9758276 165.080703,84.9758276 C165.49953,84.9758276 165.877032,85.3064188 165.877032,85.7596754 C165.877032,86.1315218 165.584412,86.4604629 165.248792,86.5440733 L165.207468,86.5440733 L165.080703,86.5440733 L165.080703,86.5440733 C156.241791,86.6260336 149.039095,79.5284975 149.039095,70.8242108 L149.039095,70.8242108 Z" id="Imported-Layers-Copy" sketch:type="MSShapeGroup"></path>
        </g>
    </g>
</svg>