<?xml version="1.0" encoding="UTF-8" standalone="no"?>
<svg width="400px" height="300px" viewBox="0 0 400 300" version="1.1" xmlns="http://www.w3.org/2000/svg" xmlns:xlink="http://www.w3.org/1999/xlink" xmlns:sketch="http://www.bohemiancoding.com/sketch/ns">
    <!-- Generator: Sketch 3.3.3 (12072) - http://www.bohemiancoding.com/sketch -->
    <title>partner-logo-dark-1</title>
    <desc>Created with Sketch.</desc>
    <defs></defs>
    <g id="OLED-LandingPage" stroke="none" stroke-width="1" fill="none" fill-rule="evenodd" sketch:type="MSPage">
        <g id="partner-logo-dark-1" sketch:type="MSArtboardGroup">
            <g id="Group" sketch:type="MSLayerGroup" transform="translate(72.000000, 110.000000)">
                <path d="M251.244386,42.7647993 L250.140569,42.7647993 L250.140569,42.3666667 L252.884342,42.3666667 L252.884342,42.7647993 L251.71745,42.7647993 L251.71745,46.0111111 L251.244386,46.0111111 L251.244386,42.7647993 L251.244386,42.7647993 Z" id="Shape" fill="#2C2E37" sketch:type="MSShapeGroup"></path>
                <path d="M256.681881,44.4449036 C256.618258,43.9328742 256.618258,43.3304867 256.618258,42.9389348 L256.618258,42.9389348 C256.522822,43.3304867 256.300139,43.8123967 256.14108,44.2943067 L255.504843,46.0111111 L255.123101,46.0111111 L254.550487,44.2943067 C254.391428,43.7822773 254.232369,43.3304867 254.136933,42.8786961 L254.136933,42.8786961 C254.136933,43.3304867 254.07331,43.9027548 254.041498,44.4449036 L253.946062,45.9508724 L253.341637,45.9508724 L253.596132,42.3666667 L254.168745,42.3666667 L254.804982,44.0834711 C254.964041,44.5352617 255.059477,44.8966942 255.186724,45.2882461 L255.186724,45.2882461 C255.28216,44.9268136 255.409407,44.5352617 255.568467,44.0834711 L256.204704,42.3666667 L256.777317,42.3666667 L257,45.9508724 L256.522822,45.9508724 L256.681881,44.4449036 L256.681881,44.4449036 Z" id="Shape-2" fill="#2C2E37" sketch:type="MSShapeGroup"></path>
                <path id="Shape-3" sketch:type="MSShapeGroup"></path>
                <path d="M96.4893238,35.7792987 L96.4893238,30.9777778 L100.604982,34.3138995 L100.604982,39.1777778 L96.4893238,35.7792987 Z" id="Shape-4" fill="#2C2E37" sketch:type="MSShapeGroup"></path>
                <path d="M92.1441593,45.3106332 C91.0624468,44.1134528 89.7025797,43.1618479 88.2499944,42.4865153 C86.735597,41.8111828 85.0975753,41.4428196 83.2741171,41.4428196 C80.6161951,41.4428196 78.2364277,42.1488491 76.2584392,43.5916049 C75.0531024,44.4204221 74.0332021,45.4948148 73.2605503,46.7226922 L73.2605503,25.5111111 L70.8807829,25.5111111 L70.8807829,68.0570609 L73.2296443,68.0570609 L73.2296443,63.0534608 C74.0641082,64.2813381 75.0531024,65.3250339 76.2275331,66.184548 C78.2364277,67.6273039 80.585289,68.3333333 83.243211,68.3333333 C85.004857,68.3333333 86.7046909,67.9649701 88.2190884,67.2896376 C89.7334858,66.6143051 91.0315408,65.6933971 92.1132532,64.4962166 C93.1949657,63.2990362 94.0912417,61.8562804 94.647551,60.2600398 C95.2038603,58.6637993 95.5747331,56.8526802 95.5747331,54.8880765 C95.5747331,52.9848666 95.2656724,51.1737475 94.647551,49.5161131 C94.1221478,47.9812664 93.2567778,46.5385106 92.1441593,45.3106332 L92.1441593,45.3106332 Z M93.2876839,54.9801673 C93.2876839,56.6378017 93.0404353,58.1112545 92.5768443,59.5233134 C92.1132532,60.8739785 91.3715075,62.040462 90.5679497,62.96137 C89.6716737,63.9436718 88.5899612,64.6497013 87.4155305,65.1715492 C86.1792877,65.6933971 84.8194206,66.0003664 83.3050232,66.0003664 C81.7906257,66.0003664 80.4616647,65.7547909 79.1945158,65.1715492 C77.958273,64.6497013 76.9074666,63.882278 76.0420967,62.96137 C75.1458206,61.9790681 74.4967931,60.8432816 73.9713899,59.5233134 C73.5077989,58.1726483 73.2605503,56.6378017 73.2605503,54.9801673 C73.2605503,53.3225329 73.5077989,51.84908 73.9713899,50.4370211 C74.434981,49.086356 75.1767267,47.9198726 76.0420967,46.9375707 C76.9383727,45.9552688 78.0200852,45.1878455 79.1945158,44.6659976 C80.4307586,44.1134528 81.7906257,43.8371804 83.243211,43.8371804 C84.6957963,43.8371804 86.0865695,44.0827559 87.2919063,44.6659976 C88.5281491,45.2185424 89.5789555,45.9552688 90.4443254,46.9375707 C91.3406015,47.9198726 91.9896289,49.086356 92.5150321,50.4370211 C93.0404353,51.84908 93.2876839,53.3225329 93.2876839,54.9801673 L93.2876839,54.9801673 Z" id="Shape-5" fill="#2C2E37" sketch:type="MSShapeGroup"></path>
                <rect id="Rectangle-path-2" fill="#2C2E37" sketch:type="MSShapeGroup" x="98.7758007" y="41.9111111" width="2.28647687" height="26.8777778"></rect>
                <path d="M115.556145,65.5838007 C114.868639,66.2001638 114.087383,66.5083454 113.149876,66.5083454 C112.212368,66.5083454 111.431112,66.2001638 110.837357,65.5221644 C110.274852,64.844165 109.899849,63.9812566 109.899849,62.871803 L109.899849,44.4733642 L116.868656,44.4733642 L116.868656,42.1003662 L109.899849,42.1003662 L109.899849,33.2555556 L107.52483,33.2555556 L107.52483,42.1003662 L103.80605,42.1003662 L103.80605,44.442546 L107.52483,44.442546 L107.52483,62.8409849 C107.52483,64.5359834 108.056084,65.9844367 109.087343,67.0938903 C110.149851,68.2341621 111.493612,68.7888889 113.118625,68.7888889 C113.899882,68.7888889 114.649888,68.6964344 115.274893,68.3882529 C115.899898,68.1417076 116.493653,67.8335261 116.993657,67.3404356 L117.524911,66.9397996 L116.1499,64.9366194 L115.556145,65.5838007 L115.556145,65.5838007 Z" id="Shape-6" fill="#2C2E37" sketch:type="MSShapeGroup"></path>
                <path d="M135.345022,56.362519 C134.629881,55.8102359 133.790369,55.3806824 132.888671,55.0738584 C132.049158,54.7670345 131.116367,54.5215753 130.276854,54.2454338 L128.660015,53.7851979 C128.038154,53.6317859 127.354107,53.4170091 126.67006,53.2329148 C126.110385,53.018138 125.457431,52.7113141 124.959942,52.4044901 C124.493547,52.0363014 124.058244,51.5760654 123.747313,51.0237823 C123.436383,50.4714992 123.280917,49.673757 123.280917,48.7532851 C123.280917,47.9862253 123.436383,47.3112126 123.809499,46.7589295 C124.182616,46.2066464 124.649012,45.7157281 125.115408,45.3782217 C125.675082,45.010033 126.35913,44.703209 127.105363,44.5497971 C127.820503,44.3350203 128.628922,44.2429731 129.344063,44.2429731 C130.649971,44.2429731 131.8626,44.3963851 132.795391,44.7645738 C133.790369,45.1327626 134.785347,45.5929985 135.718138,46.2986936 L136.277813,46.6975647 L137.645907,44.856621 L137.117326,44.4577499 C135.966883,43.537278 134.754254,42.9236301 133.479439,42.4633942 C132.235716,42.0645231 130.805436,41.9111111 129.31297,41.9111111 C128.317992,41.9111111 127.291921,42.0031583 126.328037,42.2792998 C125.333059,42.524759 124.400267,42.9543125 123.622941,43.5679604 C122.783429,44.1202435 122.099382,44.856621 121.601893,45.7157281 C121.104404,46.5748351 120.824566,47.6794013 120.824566,48.8453323 C120.824566,50.2260401 121.073311,51.3612887 121.601893,52.2510781 C122.130475,53.0795028 122.690149,53.7851979 123.436383,54.3681634 C124.151523,54.8897641 124.959942,55.2886352 125.799455,55.5647768 C126.576781,55.8102359 127.354107,56.0250127 127.975968,56.1784247 L129.592807,56.6386606 C130.432319,56.8534373 131.209646,57.0988965 131.955879,57.3443557 C132.639926,57.5898148 133.261787,57.8966388 133.790369,58.2648275 C134.256765,58.6330162 134.692068,59.0932522 134.940812,59.6455353 C135.251742,60.1978184 135.345022,60.9955606 135.345022,61.9160325 C135.345022,62.7444571 135.189556,63.4501522 134.785347,63.9717529 C134.41223,64.524036 133.945834,65.0149543 133.323973,65.3524607 C132.764298,65.7206494 132.018065,65.9661086 131.240739,66.1808853 C130.401226,66.3342973 129.6239,66.4263445 128.784388,66.4263445 C127.260828,66.4263445 125.861641,66.1195205 124.555733,65.5979198 C123.249824,65.0763191 122.037195,64.2478945 121.011125,63.2353754 L120.45145,62.7137747 L118.896797,64.524036 L119.363193,64.9842719 C120.669101,66.2115677 122.068288,67.1320396 123.685127,67.8070523 C125.301966,68.4207002 127.012084,68.7888889 128.784388,68.7888889 C129.779365,68.7888889 130.805436,68.6968417 131.800414,68.4207002 C132.857577,68.2059234 133.821462,67.8070523 134.660974,67.2854515 C135.500487,66.7331684 136.215627,66.0581558 136.806395,65.1683663 C137.397163,64.2785769 137.645907,63.1740107 137.645907,61.8853501 C137.645907,60.5353247 137.428256,59.4000761 136.96186,58.5409691 C136.65093,57.6511796 136.060162,56.9148021 135.345022,56.362519 L135.345022,56.362519 Z" id="Shape-7" fill="#2C2E37" sketch:type="MSShapeGroup"></path>
                <path d="M158.238625,44.7651584 C157.339181,43.8685199 156.315676,43.2192298 155.075064,42.6936141 C153.865468,42.1679984 152.562825,41.9206498 151.167136,41.9206498 C149.244188,41.9206498 147.476315,42.4462655 145.894535,43.4356598 C145.057122,43.9921941 144.281739,44.6414842 143.661433,45.4144485 L143.661433,25.9666667 L141.30427,25.9666667 L141.30427,68.7888889 L143.661433,68.7888889 L143.661433,51.9382671 C143.661433,50.8870357 143.87854,49.8667228 144.219709,48.9700842 C144.591892,48.0425271 145.119153,47.2077256 145.770474,46.527517 C146.45281,45.8473085 147.228193,45.2907742 148.158652,44.9197513 C149.058096,44.5487284 150.081601,44.363217 151.136121,44.363217 C152.190641,44.363217 153.152116,44.579647 154.051559,44.9197513 C154.951003,45.2907742 155.757401,45.8473085 156.408722,46.527517 C157.091059,47.2077256 157.618319,48.0425271 157.959487,48.9700842 C158.331671,49.8667228 158.517763,50.8870357 158.517763,51.9382671 L158.517763,68.7888889 L160.967972,68.7888889 L160.967972,51.9382671 C160.967972,50.5469314 160.719849,49.2483514 160.192589,48.0425271 C159.78939,46.6821099 159.076038,45.6927156 158.238625,44.7651584 L158.238625,44.7651584 Z" id="Shape-8" fill="#2C2E37" sketch:type="MSShapeGroup"></path>
                <path d="M183.242123,45.0147133 C182.47552,43.9408295 181.494268,43.0203577 180.145046,42.3760274 C178.857153,41.8237443 177.201291,41.4555556 175.269451,41.4555556 C174.380192,41.4555556 173.214955,41.5476027 171.865734,41.7623795 C170.485848,41.9771563 168.921978,42.4373922 167.29678,43.1124049 L166.622169,43.4192288 L167.603421,45.6283612 L168.216703,45.3215373 C169.657917,44.7078894 171.007138,44.2783359 172.233703,44.0942415 C173.521596,43.9408295 174.564176,43.8487823 175.330779,43.8487823 C176.863985,43.8487823 178.121214,44.0635591 179.041138,44.4624302 C179.961062,44.8613014 180.697001,45.5056317 181.248955,46.2113267 C181.800909,46.9783866 182.168878,47.9602232 182.383527,49.0341071 C182.536848,49.9545789 182.690168,50.9977803 182.751497,52.0716641 C179.930397,51.519381 177.446604,51.1818747 175.238787,51.1818747 C171.804405,51.1818747 169.075299,51.9489346 167.204787,53.3910071 C165.916894,54.4342085 165.088963,55.6001395 164.720993,56.8274353 C164.353024,58.0547311 164.169039,59.1592973 164.169039,60.1104515 C164.169039,60.8161466 164.261032,61.6445713 164.537009,62.5957255 C164.782322,63.5161974 165.242283,64.4366692 165.88623,65.2650939 C166.499512,66.0935185 167.419436,66.7992136 168.523344,67.4128615 C169.596589,67.9651446 171.007138,68.3333333 172.693665,68.3333333 C173.521596,68.3333333 174.44152,68.2412861 175.422772,68.0265094 C176.404024,67.8117326 177.385275,67.5049087 178.366527,67.1060375 C179.347779,66.7071664 180.329031,66.1242009 181.187626,65.4491882 C181.739581,64.9889523 182.383527,64.4059868 182.874153,63.8537037 L182.874153,68.0878742 L185.204626,68.0878742 L185.204626,53.6671487 C185.204626,51.9182522 185.112634,50.3227676 184.836657,48.8806951 C184.468687,47.4386225 183.947397,46.1192796 183.242123,45.0147133 L183.242123,45.0147133 Z M182.720833,54.4955733 L182.720833,56.7660705 C182.720833,57.5944952 182.62884,58.4536022 182.47552,59.2820269 C182.383527,60.1104515 182.015558,60.8161466 181.494268,61.5525241 C180.942313,62.3809488 180.267703,63.0559614 179.531764,63.6082445 C178.765161,64.1605277 177.998558,64.651446 177.201291,64.9889523 C176.373359,65.357141 175.606756,65.5412354 174.778825,65.7560122 C173.950894,65.9094242 173.245619,66.0014713 172.50968,66.0014713 C171.283115,66.0014713 170.301863,65.7866946 169.473932,65.3878234 C168.646001,64.9889523 168.032718,64.4059868 167.634085,63.8537037 C167.174123,63.3014206 166.867482,62.6264079 166.652833,61.9513952 C166.499512,61.2763825 166.346192,60.6627347 166.346192,60.2024987 C166.346192,59.4354389 166.438184,58.6070142 166.744825,57.6251776 C166.990138,56.7353881 167.572757,55.9683283 168.431352,55.2626332 C169.933894,54.1273846 172.080382,53.5751015 174.96281,53.5751015 C177.262619,53.5751015 179.838405,53.8819254 182.720833,54.4955733 L182.720833,54.4955733 Z" id="Shape-9" fill="#2C2E37" sketch:type="MSShapeGroup"></path>
                <path d="M202.273562,43.3355095 C201.656983,42.9329621 200.91709,42.5613799 200.115538,42.2826933 C199.283158,42.0349718 198.512436,41.9111111 197.618397,41.9111111 C195.953637,41.9111111 194.473849,42.3755888 193.05572,43.2735791 C192.439142,43.6761265 191.822564,44.2025346 191.298473,44.8218382 L191.298473,42.2207629 L188.862989,42.2207629 L188.862989,68.7888889 L191.298473,68.7888889 L191.298473,51.4174219 C191.298473,50.3646057 191.452617,49.4356503 191.760906,48.5995904 C192.130853,47.7635305 192.531629,46.9894009 193.117378,46.3700973 C193.672298,45.7507937 194.350534,45.2243856 195.121256,44.8528034 C196.41607,44.2954301 198.019173,44.1715694 199.313987,44.6360471 C199.868907,44.8528034 200.454656,45.1624552 200.978748,45.472107 L201.74947,45.9985151 L202.581851,43.6451613 L202.273562,43.3355095 L202.273562,43.3355095 Z" id="Shape-10" fill="#2C2E37" sketch:type="MSShapeGroup"></path>
                <path d="M204.91316,54.190404 L226.36121,54.190404 L226.299042,53.4138889 C226.205789,51.6434343 225.770611,49.9661616 225.242181,48.5063131 C224.682667,47.0464646 223.87448,45.8040404 222.879787,44.7479798 C221.885095,43.6919192 220.703898,42.8843434 219.398365,42.2941919 C218.092831,41.7040404 216.538625,41.4555556 214.92225,41.4555556 C213.150455,41.4555556 211.440828,41.8282828 209.917705,42.5116162 C208.394583,43.1949495 207.089049,44.1267677 206.001105,45.3691919 C204.944244,46.5805556 204.073889,48.040404 203.48329,49.7487374 C202.923776,51.4260101 202.581851,53.2275253 202.581851,55.215404 C202.581851,57.2032828 202.892692,59.0358586 203.48329,60.6510101 C204.042805,62.3282828 204.944244,63.7881313 206.001105,64.9684343 C207.057965,66.179798 208.394583,67.1426768 209.917705,67.7949495 C211.440828,68.4472222 213.088286,68.7888889 214.92225,68.7888889 C216.942719,68.7888889 218.776682,68.4782828 220.455225,67.8570707 C222.164852,67.2979798 223.625807,66.335101 224.838088,65.1858586 L225.366518,64.7199495 L223.843395,62.9494949 L223.283881,63.415404 C222.227021,64.3161616 221.045824,65.0305556 219.58487,65.5896465 C218.186084,66.1176768 216.600793,66.3661616 214.891166,66.3661616 C213.430212,66.3661616 212.06251,66.1176768 210.881313,65.5275253 C209.700116,64.9373737 208.643256,64.2229798 207.741816,63.2911616 C206.902545,62.2972222 206.18761,61.1479798 205.721348,59.8123737 C205.255086,58.4457071 205.006413,56.8926768 205.006413,55.215404 L205.006413,54.3767677 C204.91316,54.2835859 204.91316,54.2525253 204.91316,54.190404 L204.91316,54.190404 Z M205.255086,51.829798 C205.472675,50.7737374 205.8146,49.8419192 206.311946,49.0032828 C206.87146,47.9472222 207.555311,46.9843434 208.394583,46.2388889 C209.233854,45.4623737 210.228547,44.8722222 211.316491,44.4684343 C212.373351,44.0646465 213.616717,43.8472222 214.92225,43.8472222 C216.383204,43.8472222 217.626569,44.0957071 218.68343,44.5616162 C219.74029,45.0275253 220.610646,45.6487374 221.356665,46.4873737 C222.0716,47.3260101 222.662198,48.2578283 223.066292,49.2517677 C223.439302,50.090404 223.625807,50.960101 223.843395,51.8608586 L205.28617,51.8608586 L205.28617,51.829798 L205.255086,51.829798 Z" id="Shape-11" fill="#2C2E37" sketch:type="MSShapeGroup"></path>
                <path d="M246.328223,58.4913594 C245.862354,57.6025846 245.272253,56.8976942 244.557921,56.3460408 C243.843588,55.7943874 243.005024,55.3653237 242.104344,55.0588496 C241.26578,54.7523755 240.334042,54.5071962 239.495478,54.2313696 L237.880466,53.7716584 C237.259307,53.6184214 236.576033,53.4038895 235.892758,53.2200051 C235.333715,53.0054732 234.681499,52.6989991 234.184572,52.392525 C233.718703,52.0247561 233.283892,51.565045 232.973313,51.0133916 C232.662733,50.4617382 232.507444,49.6649056 232.507444,48.7454833 C232.507444,47.9792981 232.662733,47.3050551 233.035429,46.7534017 C233.408124,46.2017484 233.873993,45.7113898 234.401977,45.3742683 C234.96102,45.0064994 235.644295,44.7000253 236.389685,44.5467883 C237.104017,44.3322564 237.911524,44.2403142 238.625856,44.2403142 C239.930289,44.2403142 241.141548,44.3935512 242.073286,44.7613202 C243.06714,45.1290891 244.060994,45.5888002 244.992732,46.2936906 L245.551774,46.6921069 L246.918323,44.8532624 L246.390338,44.4548461 C245.241195,43.5354238 244.029936,42.9224756 242.756561,42.4627645 C241.514243,42.0643482 240.085579,41.9111111 238.594798,41.9111111 C237.600944,41.9111111 236.576033,42.0030533 235.613237,42.27888 C234.681499,42.5240593 233.687645,42.953123 232.911197,43.5660712 C232.072633,44.1177246 231.389358,44.8532624 230.892431,45.7113898 C230.364447,46.6001647 230.115983,47.672824 230.115983,48.8374256 C230.115983,50.216559 230.364447,51.3505131 230.892431,52.239288 C231.420416,53.066768 231.979459,53.7716584 232.724849,54.3539592 C233.439182,54.8749652 234.246688,55.2733815 235.085252,55.5492082 C235.8617,55.7943874 236.638148,56.0089193 237.259307,56.1621563 L238.874319,56.6218675 C239.712883,56.8363993 240.489332,57.0815786 241.234722,57.3267579 C241.917996,57.5719372 242.539155,57.8784113 243.06714,58.2461802 C243.533009,58.6139491 243.96782,59.0736602 244.216283,59.6253136 C244.526863,60.1769669 244.620036,60.9737996 244.620036,61.8932218 C244.620036,62.7207019 244.464747,63.4255923 244.060994,63.9465983 C243.688298,64.4982516 243.22243,64.9886102 242.601271,65.3257317 C242.042228,65.6935006 241.296838,65.9386798 240.52039,66.1532117 C238.284219,66.6742177 235.892758,66.4596858 233.842935,65.6015583 C232.538502,65.049905 231.327242,64.2530723 230.302331,63.2417078 L229.743288,62.7207019 L228.190391,64.528899 L228.65626,64.9886102 C229.960693,66.2145065 231.3583,67.1339288 232.973313,67.8081718 C234.588325,68.42112 236.296511,68.7888889 238.066813,68.7888889 C239.060667,68.7888889 240.085579,68.6969467 241.079432,68.42112 C242.135402,68.2065881 243.098198,67.8081718 243.936762,67.2871658 C244.775326,66.7355125 245.489658,66.0612695 246.079759,65.1724946 C246.638802,64.2837198 246.918323,63.180413 246.918323,61.8932218 C247.011497,60.5140884 246.794091,59.3801343 246.328223,58.4913594 L246.328223,58.4913594 Z" id="Shape-12" fill="#2C2E37" sketch:type="MSShapeGroup"></path>
                <path d="M17.8345196,51.2097648 L-1.77635684e-15,33.7111111 L-1.77635684e-15,54.6666667 L16.3120606,54.6666667 C16.5916959,53.4123925 17.119896,52.2193025 17.8345196,51.2097648 L17.8345196,51.2097648 Z" id="Shape-13" fill="#2C2E37" sketch:type="MSShapeGroup"></path>
                <path d="M16.4314542,58.3111111 L1.77635684e-15,58.3111111 C0.37415076,64.0454754 2.68141378,69.2219015 6.26702523,73.3444444 L17.8345196,61.8447194 C17.1797557,60.7598396 16.6497088,59.5819702 16.4314542,58.3111111 L16.4314542,58.3111111 Z" id="Shape-14" fill="#2C2E37" sketch:type="MSShapeGroup"></path>
                <path d="M42.0711744,37.6765152 C37.9951169,34.1356061 32.7678064,31.8371212 26.980427,31.4333333 L26.980427,47.7401515 C28.2872547,47.9886364 29.4385075,48.4545455 30.4341857,49.2 L42.0711744,37.6765152 L42.0711744,37.6765152 Z" id="Shape-15" fill="#2C2E37" sketch:type="MSShapeGroup"></path>
                <path d="M32.9252669,61.4894945 L44.3367187,72.8888889 C47.7326199,68.8853482 49.8741792,63.8732821 50.3024911,58.3111111 L34.2407962,58.3111111 C33.9348592,59.5030049 33.537141,60.5420918 32.9252669,61.4894945 L32.9252669,61.4894945 Z" id="Shape-16" fill="#2C2E37" sketch:type="MSShapeGroup"></path>
                <path d="M34.3906907,54.6666667 L50.7597865,54.6666667 C50.3856357,48.9323024 48.0783727,43.7558763 44.4927612,39.6333333 L32.9252669,51.1330584 C33.61121,52.2179381 34.1100776,53.4268041 34.3906907,54.6666667 L34.3906907,54.6666667 Z" id="Shape-17" fill="#2C2E37" sketch:type="MSShapeGroup"></path>
                <path d="M8.6886121,75.7568182 C12.7646696,79.2977273 17.99198,81.5962121 23.7793594,82 L23.7793594,65.6931818 C22.4725318,65.444697 21.3212789,64.9787879 20.3256008,64.2333333 L8.6886121,75.7568182 L8.6886121,75.7568182 Z" id="Shape-18" fill="#2C2E37" sketch:type="MSShapeGroup"></path>
                <path d="M27.4377224,65.6931818 L27.4377224,82 C33.2251018,81.6272727 38.4524122,79.2977273 42.5284698,75.7568182 L31.0159409,64.2333333 C29.8958029,64.9787879 28.7134351,65.444697 27.4377224,65.6931818 L27.4377224,65.6931818 Z" id="Shape-19" fill="#2C2E37" sketch:type="MSShapeGroup"></path>
                <path d="M0.062249632,28.3648886 C4.45084869,32.7121161 18.2391422,46.4320894 20.5423786,48.7444444 C21.5383727,48.1894792 22.5654916,47.6961768 23.7793594,47.4495256 L23.7793594,20.9036896 L0,7.10542736e-15 C-2.21155119e-15,0.0308314007 0.062249632,27.7174292 0.062249632,28.3648886 L0.062249632,28.3648886 Z" id="Shape-20" fill="#2C2E37" sketch:type="MSShapeGroup"></path>
            </g>
        </g>
    </g>
</svg>